<?xml version="1.0" encoding="UTF-8" standalone="no"?> <!-- Created with Vectornator for iOS (http://vectornator.io/) --><!DOCTYPE svg PUBLIC "-//W3C//DTD SVG 1.1//EN" "http://www.w3.org/Graphics/SVG/1.1/DTD/svg11.dtd">
<svg height="100%" style="fill-rule:nonzero;clip-rule:evenodd;stroke-linecap:round;stroke-linejoin:round;" xmlns:xlink="http://www.w3.org/1999/xlink" xmlns="http://www.w3.org/2000/svg" xml:space="preserve" width="100%" xmlns:vectornator="http://vectornator.io" version="1.1" viewBox="0 0 841.995 595.35">
<metadata>
<vectornator:setting key="CMYKEnabledKey" value="0"/>
<vectornator:setting key="TimeLapseWatermarkDisabled" value="0"/>
<vectornator:setting key="IsolateActiveLayer" value="0"/>
<vectornator:setting key="OutlineMode" value="0"/>
<vectornator:setting key="GuidesVisible" value="1"/>
<vectornator:setting key="SnapToGuides" value="1"/>
<vectornator:setting key="PencilOnly" value="0"/>
<vectornator:setting key="RulersVisible" value="1"/>
<vectornator:setting key="SnapToEdges" value="0"/>
<vectornator:setting key="DynamicGuides" value="0"/>
<vectornator:setting key="SnapToGrid" value="0"/>
<vectornator:setting key="Units" value="Millimeters"/>
<vectornator:setting key="DisplayWhiteBackground" value="0"/>
<vectornator:setting key="doHistoryDisabled" value="0"/>
<vectornator:setting key="SnapToPoints" value="0"/>
<vectornator:setting key="DimensionsVisible" value="1"/>
</metadata>
<defs/>
<g id="Layer 1" vectornator:layerName="Layer 1">
<path d="M8.96875+2L8.96875+506.839L352.833+506.839L352.833+2L8.96875+2ZM218.326+78.3109L246.227+78.3109L246.227+157.849L218.326+157.849L218.326+78.3109ZM140.063+78.5191L174.549+78.5191L174.549+161.129C155.231+159.984+139.907+144.069+139.907+124.561C139.907+123.514+139.977+122.488+140.063+121.464L140.063+78.5191ZM179.182+78.5191L213.668+78.5191L213.668+124.925L213.616+124.925C213.421+144.192+198.278+159.864+179.182+161.103L179.182+78.5191ZM231.912+82.8916C226.975+82.8916+222.959+86.8813+222.959+91.8189C222.959+96.7565+226.975+100.772+231.912+100.772C236.85+100.772+240.84+96.7565+240.84+91.8189C240.84+86.8813+236.85+82.8916+231.912+82.8916ZM131.24+93.7188L131.553+138.667L92.6685+117.221L131.24+93.7188ZM179.937+163.679L207.838+163.679L207.838+243.217L179.937+243.217L179.937+163.679ZM101.674+163.887L136.185+163.887L136.185+246.497C116.868+245.352+101.518+229.438+101.518+209.929C101.518+208.883+101.587+207.856+101.674+206.832L101.674+163.887ZM140.792+163.887L175.278+163.887L175.278+210.319L175.226+210.319C175.031+229.587+159.888+245.258+140.792+246.497L140.792+163.887ZM193.523+168.26C188.585+168.26+184.569+172.276+184.569+177.213C184.569+182.151+188.585+186.14+193.523+186.14C198.46+186.14+202.45+182.151+202.45+177.213C202.45+172.276+198.46+168.26+193.523+168.26ZM216.4+181.768L255.076+203.578L216.27+226.742L216.4+181.768Z" opacity="1" fill="#030301"/>
</g>
</svg>
